<svg height="512pt" viewBox="-4 0 512 512.00108" width="512pt" xmlns="http://www.w3.org/2000/svg" xmlns:xlink="http://www.w3.org/1999/xlink"><linearGradient id="a"><stop offset="0" stop-color="#662d91"/><stop offset=".437" stop-color="#3873b3"/><stop offset="1" stop-color="#00c9dd"/></linearGradient><linearGradient id="b" gradientTransform="matrix(1.081698 0 0 -1.081698 -4.195366 512.724737)" gradientUnits="userSpaceOnUse" x1="17.1261" x2="429.6762" xlink:href="#a" y1="440.6892" y2="28.1391"/><linearGradient id="c" gradientTransform="matrix(1.081698 0 0 -1.081698 -4.195366 512.724737)" gradientUnits="userSpaceOnUse" x1="-151.3105" x2="261.2396" xlink:href="#a" y1="272.2526" y2="-140.2975"/><linearGradient id="d" gradientTransform="matrix(1.081698 0 0 -1.081698 -4.195366 512.724737)" gradientUnits="userSpaceOnUse" x1="-133.8516" x2="278.6985" xlink:href="#a" y1="289.7115" y2="-122.8386"/><linearGradient id="e" gradientTransform="matrix(1.081698 0 0 -1.081698 -4.195366 512.724737)" gradientUnits="userSpaceOnUse" x1="-116.3927" x2="296.1574" xlink:href="#a" y1="307.1704" y2="-105.3797"/><linearGradient id="f" gradientTransform="matrix(1.081698 0 0 -1.081698 -4.195366 512.724737)" gradientUnits="userSpaceOnUse" x1="3.8798" x2="416.4299" xlink:href="#a" y1="427.4429" y2="14.8928"/><linearGradient id="g" gradientTransform="matrix(1.081698 0 0 -1.081698 -4.195366 512.724737)" gradientUnits="userSpaceOnUse" x1="25.2184" x2="437.7685" xlink:href="#a" y1="448.7816" y2="36.2315"/><linearGradient id="h" gradientTransform="matrix(1.081698 0 0 -1.081698 -4.195366 512.724737)" gradientUnits="userSpaceOnUse" x1="46.5571" x2="459.1072" xlink:href="#a" y1="470.1202" y2="57.5701"/><linearGradient id="i" gradientTransform="matrix(1.081698 0 0 -1.081698 -4.195366 512.724737)" gradientUnits="userSpaceOnUse" x1="64.016" x2="476.5661" xlink:href="#a" y1="487.5792" y2="75.029"/><linearGradient id="j" gradientTransform="matrix(1.081698 0 0 -1.081698 -4.195366 512.724737)" gradientUnits="userSpaceOnUse" x1="104.7534" x2="517.3036" xlink:href="#a" y1="528.3166" y2="115.7665"/><linearGradient id="k" gradientTransform="matrix(1.081698 0 0 -1.081698 -4.195366 512.724737)" gradientUnits="userSpaceOnUse" x1="31.0381" x2="443.5882" xlink:href="#a" y1="454.6012" y2="42.0511"/><linearGradient id="l" gradientTransform="matrix(1.081698 0 0 -1.081698 -4.195366 512.724737)" gradientUnits="userSpaceOnUse" x1="15.519" x2="428.0692" xlink:href="#a" y1="439.0822" y2="26.5321"/><linearGradient id="m" gradientTransform="matrix(1.081698 0 0 -1.081698 -4.195366 512.724737)" gradientUnits="userSpaceOnUse" x1="-7.7595" x2="404.7906" xlink:href="#a" y1="415.8036" y2="3.2535"/><linearGradient id="n" gradientTransform="matrix(1.081698 0 0 -1.081698 -4.195366 512.724737)" gradientUnits="userSpaceOnUse" x1="137.7314" x2="550.2815" xlink:href="#a" y1="561.2946" y2="148.7444"/><linearGradient id="o" gradientTransform="matrix(1.081698 0 0 -1.081698 -4.195366 512.724737)" gradientUnits="userSpaceOnUse" x1="153.2504" x2="565.8005" xlink:href="#a" y1="576.8136" y2="164.2635"/><linearGradient id="p" gradientTransform="matrix(1.081698 0 0 -1.081698 -4.195366 512.724737)" gradientUnits="userSpaceOnUse" x1="34.9178" x2="447.4679" xlink:href="#a" y1="458.481" y2="45.9309"/><linearGradient id="q" gradientTransform="matrix(1.081698 0 0 -1.081698 -4.195366 512.724737)" gradientUnits="userSpaceOnUse" x1="19.3988" x2="431.9489" xlink:href="#a" y1="442.9619" y2="30.4118"/><path d="m495.214844 235.015625h-16.785156v-209.835937c0-13.90625-11.273438-25.179688-25.179688-25.179688h-402.886719c-13.910156 0-25.183593 11.273438-25.183593 25.179688v268.589843h-16.785157c-4.636719 0-8.394531 3.757813-8.394531 8.394531v201.441407c0 4.636719 3.757812 8.394531 8.394531 8.394531h117.507813c4.636718 0 8.394531-3.757812 8.394531-8.394531v-67.144531h168.355469v67.144531c0 4.636719 3.757812 8.394531 8.394531 8.394531h184.167969c4.636718 0 8.394531-3.757812 8.394531-8.394531v-260.195313c0-4.636718-3.757813-8.394531-8.394531-8.394531zm-8.394532 16.789063v16.785156h-167.378906v-16.785156zm-167.382812 33.574218h167.382812v167.867188h-167.382812zm-8.390625-50.363281c-4.636719 0-8.394531 3.757813-8.394531 8.394531v16.785156h-260.683594v-201.441406h419.671875v176.261719zm-260.683594-218.230469h402.886719c4.632812 0 8.390625 3.757813 8.390625 8.394532v16.789062h-419.671875v-16.789062c0-4.636719 3.757812-8.394532 8.394531-8.394532zm-8.394531 260.199219h260.683594v33.574219h-168.355469v-8.394532c0-4.636718-3.757813-8.394531-8.394531-8.394531h-83.933594zm92.328125 109.113281v-58.753906h30.324219l-19.582032 58.753906zm-16.789063 41.96875v25.179688h-100.71875v-109.113282h100.71875zm0-117.507812v16.785156h-100.71875v-16.785156zm-100.71875 184.65625v-25.183594h100.71875v25.183594zm285.375-75.542969h-167.867187v-16.785156h167.867187zm-58.753906-33.574219h-80.675781l19.574219-58.753906h120.34375v58.753906zm76.027344 109.117188v-25.183594h167.382812v25.183594zm0 0" fill="url(#b)"/><path d="m33.574219 419.671875h16.789062v16.789063h-16.789062zm0 0" fill="url(#c)"/><path d="m58.753906 394.492188h16.789063v41.96875h-16.789063zm0 0" fill="url(#d)"/><path d="m83.9375 369.3125h16.785156v67.148438h-16.785156zm0 0" fill="url(#e)"/><path d="m360.917969 402.886719h16.789062v33.574219h-16.789062zm0 0" fill="url(#f)"/><path d="m394.492188 377.703125h16.789062v58.757813h-16.789062zm0 0" fill="url(#g)"/><path d="m428.066406 352.523438h16.789063v83.9375h-16.789063zm0 0" fill="url(#h)"/><path d="m201.445312 159.476562h-33.574218c-4.636719 0-8.394532 3.757813-8.394532 8.394532v41.964844c0 4.636718 3.757813 8.394531 8.394532 8.394531h33.574218c4.632813 0 8.394532-3.757813 8.394532-8.394531v-41.96875c0-4.632813-3.757813-8.390626-8.394532-8.390626zm-8.394531 41.964844h-16.785156v-25.179687h16.785156zm0 0" fill="url(#g)"/><path d="m268.589844 125.902344h-33.570313c-4.636719 0-8.394531 3.757812-8.394531 8.394531v75.539063c0 4.636718 3.757812 8.394531 8.394531 8.394531h33.570313c4.636718 0 8.394531-3.757813 8.394531-8.394531v-75.539063c0-4.636719-3.757813-8.394531-8.394531-8.394531zm-8.390625 75.539062h-16.789063v-58.753906h16.789063zm0 0" fill="url(#i)"/><path d="m335.738281 83.933594h-33.574219c-4.632812 0-8.394531 3.757812-8.394531 8.394531v117.507813c0 4.636718 3.757813 8.394531 8.394531 8.394531h33.574219c4.636719 0 8.394531-3.757813 8.394531-8.394531v-117.507813c0-4.636719-3.757812-8.394531-8.394531-8.394531zm-8.390625 117.507812h-16.789062v-100.71875h16.789062zm0 0" fill="url(#j)"/><path d="m58.753906 75.542969h67.148438v16.785156h-67.148438zm0 0" fill="url(#k)"/><path d="m58.753906 109.113281h67.148438v16.789063h-67.148438zm0 0" fill="url(#l)"/><path d="m58.753906 142.6875h33.574219v16.789062h-33.574219zm0 0" fill="url(#m)"/><path d="m402.886719 176.261719h41.96875v16.789062h-41.96875zm0 0" fill="url(#n)"/><path d="m402.886719 142.6875h41.96875v16.789062h-41.96875zm0 0" fill="url(#o)"/><path d="m327.347656 293.769531h33.570313v16.789063h-33.570313zm0 0" fill="url(#h)"/><path d="m327.347656 318.953125h33.570313v16.785156h-33.570313zm0 0" fill="url(#p)"/><path d="m327.347656 344.132812h16.785156v16.785157h-16.785156zm0 0" fill="url(#q)"/></svg>