<svg height="512pt" viewBox="0 0 512 512" width="512pt" xmlns="http://www.w3.org/2000/svg" xmlns:xlink="http://www.w3.org/1999/xlink"><linearGradient id="a"><stop offset="0" stop-color="#662d91"/><stop offset=".437" stop-color="#3873b3"/><stop offset="1" stop-color="#00c9dd"/></linearGradient><linearGradient id="b" gradientTransform="matrix(1.099722 0 0 -1.099722 0 504.201978)" gradientUnits="userSpaceOnUse" x1="41.0526" x2="455.4106" xlink:href="#a" y1="440.0419" y2="25.6838"/><linearGradient id="c" gradientTransform="matrix(1.099722 0 0 -1.099722 0 504.201978)" gradientUnits="userSpaceOnUse" x1="-16.8149" x2="397.5432" xlink:href="#a" y1="382.1823" y2="-32.1759"/><linearGradient id="d" gradientTransform="matrix(1.099722 0 0 -1.099722 0 504.201978)" gradientUnits="userSpaceOnUse" x1="30.3251" x2="444.6832" xlink:href="#a" y1="429.3144" y2="14.9563"/><linearGradient id="e" gradientTransform="matrix(1.099722 0 0 -1.099722 0 504.201978)" gradientUnits="userSpaceOnUse" x1="96.5333" x2="510.8914" xlink:href="#a" y1="495.5226" y2="81.1646"/><linearGradient id="f" gradientTransform="matrix(1.099722 0 0 -1.099722 0 504.201978)" gradientUnits="userSpaceOnUse" x1="87.4459" x2="501.804" xlink:href="#a" y1="486.4352" y2="72.0771"/><linearGradient id="g" gradientTransform="matrix(1.099722 0 0 -1.099722 0 504.201978)" gradientUnits="userSpaceOnUse" x1="-5.1756" x2="409.1825" xlink:href="#a" y1="393.8215" y2="-20.5366"/><linearGradient id="h" gradientTransform="matrix(1.099722 0 0 -1.099722 0 504.201978)" gradientUnits="userSpaceOnUse" x1="10.3434" x2="424.7015" xlink:href="#a" y1="409.3405" y2="-5.0176"/><linearGradient id="i" gradientTransform="matrix(1.099722 0 0 -1.099722 0 504.201978)" gradientUnits="userSpaceOnUse" x1="27.8023" x2="442.1604" xlink:href="#a" y1="426.7994" y2="12.4414"/><linearGradient id="j" gradientTransform="matrix(1.099722 0 0 -1.099722 0 504.201978)" gradientUnits="userSpaceOnUse" x1="126.7362" x2="541.0942" xlink:href="#a" y1="525.7333" y2="111.3752"/><linearGradient id="k" gradientTransform="matrix(1.099722 0 0 -1.099722 0 504.201978)" gradientUnits="userSpaceOnUse" x1="190.7522" x2="605.1102" xlink:href="#a" y1="589.7493" y2="175.3912"/><linearGradient id="l" gradientTransform="matrix(1.099722 0 0 -1.099722 0 504.201978)" gradientUnits="userSpaceOnUse" x1="179.1129" x2="593.4709" xlink:href="#a" y1="578.11" y2="163.7519"/><linearGradient id="m" gradientTransform="matrix(1.099722 0 0 -1.099722 0 504.201978)" gradientUnits="userSpaceOnUse" x1="167.4736" x2="581.8317" xlink:href="#a" y1="566.4707" y2="152.1126"/><linearGradient id="n" gradientTransform="matrix(1.099722 0 0 -1.099722 0 504.201978)" gradientUnits="userSpaceOnUse" x1="-69.1916" x2="345.1665" xlink:href="#a" y1="329.8055" y2="-84.5526"/><linearGradient id="o" gradientTransform="matrix(1.099722 0 0 -1.099722 0 504.201978)" gradientUnits="userSpaceOnUse" x1="-80.8309" x2="333.5272" xlink:href="#a" y1="318.1662" y2="-96.1918"/><linearGradient id="p" gradientTransform="matrix(1.099722 0 0 -1.099722 0 504.201978)" gradientUnits="userSpaceOnUse" x1="29.7422" x2="444.1003" xlink:href="#a" y1="428.7393" y2="14.3812"/><path d="m486.398438 0h-460.796876c-14.140624 0-25.601562 11.460938-25.601562 25.597656v349.867188c0 14.136718 11.460938 25.601562 25.601562 25.601562h150.296876l-19.910157 59.734375h-87.722656c-4.710937 0-8.53125 3.820313-8.53125 8.53125v34.132813c0 4.714844 3.820313 8.535156 8.53125 8.535156h324.265625c65.980469 0 119.46875-53.484375 119.46875-119.464844 0-4.101562-.210938-8.199218-.632812-12.28125.363281-1.570312.574218-3.175781.632812-4.785156v-349.871094c0-14.136718-11.460938-25.597656-25.601562-25.597656zm-185.242188 315.734375h-284.089844v-264.535156h477.867188v264.535156h-11.027344c-42.253906-50.46875-117.417969-57.121094-167.882812-14.867187-5.382813 4.507812-10.359376 9.480468-14.867188 14.867187zm-284.089844-290.136719c0-4.710937 3.820313-8.53125 8.535156-8.53125h460.796876c4.714843 0 8.535156 3.820313 8.535156 8.53125v8.535156h-477.867188zm0 349.867188v-42.667969h272.160156c-9.085937 15.640625-14.464843 33.15625-15.726562 51.199219h-247.898438c-4.714843.003906-8.535156-3.816406-8.535156-8.53125zm176.820313 25.601562h79.613281c1.5 21.457032 8.800781 42.105469 21.128906 59.734375h-120.652344zm-117.085938 93.863282v-17.066407h232.285157c6.71875 6.539063 14.179687 12.265625 22.230468 17.066407zm315.730469 0c-56.554688.054687-102.441406-45.75-102.492188-102.300782-.054687-56.554687 45.75-102.445312 102.300782-102.496094 51.472656-.050781 94.980468 38.117188 101.636718 89.15625-.078124.144532-.101562.304688-.1875.441407l.28125.160156c7.304688 55.753906-31.96875 106.871094-87.71875 114.179687-4.582031.601563-9.199218.886719-13.820312.859376zm0 0" fill="url(#b)"/><path d="m247.464844 349.867188h17.066406v17.066406h-17.066406zm0 0" fill="url(#c)"/><path d="m230.742188 199.320312v-83.726562c0-4.714844-3.820313-8.535156-8.535157-8.535156-52.910156.003906-95.800781 42.898437-95.796875 95.808594 0 52.910156 42.898438 95.800781 95.808594 95.796874 25.40625 0 49.769531-10.09375 67.734375-28.054687 3.332031-3.332031 3.332031-8.734375 0-12.066406zm-8.535157 82.277344c-43.484375.015625-78.75-35.222656-78.761719-78.707031-.015624-40.203125 30.261719-73.960937 70.230469-78.304687v78.269531c0 2.261719.898438 4.429687 2.5 6.03125l55.355469 55.363281c-13.964844 11.273438-31.378906 17.402344-49.324219 17.347656zm0 0" fill="url(#d)"/><path d="m245.980469 171.953125c1.035156.4375 2.148437.660156 3.269531.660156 2.261719 0 4.433594-.902343 6.03125-2.503906l61.707031-61.738281c3.332031-3.332032 3.332031-8.734375 0-12.066406-17.929687-18.015626-42.320312-28.113282-67.738281-28.039063-4.710938 0-8.535156 3.820313-8.535156 8.535156v87.277344c.003906 3.449219 2.082031 6.554687 5.265625 7.875zm11.800781-86.1875c14.9375 1.585937 29.101562 7.453125 40.78125 16.898437l-40.78125 40.789063zm0 0" fill="url(#e)"/><path d="m255.847656 190.652344c-3.332031 3.332031-3.332031 8.734375 0 12.066406l61.710938 61.710938c3.332031 3.332031 8.734375 3.332031 12.066406 0 37.414062-37.40625 37.421875-98.058594.019531-135.472657-.007812-.007812-.015625-.011719-.019531-.019531-3.332031-3.332031-8.734375-3.332031-12.066406 0zm84.777344 6.03125c.050781 17.945312-6.074219 35.363281-17.347656 49.324218l-49.324219-49.324218 49.324219-49.320313c11.273437 13.960938 17.398437 31.375 17.347656 49.320313zm0 0" fill="url(#f)"/><path d="m42.667969 110.933594h17.066406v34.132812h-17.066406zm0 0" fill="url(#g)"/><path d="m68.265625 93.867188h17.066406v51.199218h-17.066406zm0 0" fill="url(#h)"/><path d="m93.867188 68.265625h17.066406v76.800781h-17.066406zm0 0" fill="url(#i)"/><path d="m418.132812 225.398438 11.03125 11.03125c3.332032 3.332031 8.734376 3.332031 12.066407 0l42.667969-42.664063-12.066407-12.066406-36.632812 36.632812-11.035157-11.035156c-3.332031-3.328125-8.734374-3.328125-12.066406 0l-34.132812 34.136719 12.066406 12.066406zm0 0" fill="url(#j)"/><path d="m392.53125 68.265625h76.800781v17.066406h-76.800781zm0 0" fill="url(#k)"/><path d="m392.53125 93.867188h76.800781v17.066406h-76.800781zm0 0" fill="url(#l)"/><path d="m392.53125 119.464844h76.800781v17.066406h-76.800781zm0 0" fill="url(#m)"/><path d="m42.667969 264.53125h25.597656v17.066406h-25.597656zm0 0" fill="url(#n)"/><path d="m42.667969 290.132812h25.597656v17.066407h-25.597656zm0 0" fill="url(#o)"/><path d="m384 341.332031h17.066406c9.425782 0 17.066406 7.640625 17.066406 17.066407h17.066407c0-18.851563-15.28125-34.132813-34.132813-34.132813v-17.066406h-17.066406v17.066406c-18.851562 0-34.132812 15.28125-34.132812 34.132813v17.066406c0 14.136718 11.460937 25.601562 25.597656 25.601562h34.132812c4.714844 0 8.535156 3.820313 8.535156 8.53125v17.066406c0 9.425782-7.640624 17.066407-17.066406 17.066407h-17.066406c-9.425781 0-17.066406-7.640625-17.066406-17.066407v-8.53125h-17.066406v8.53125c0 18.851563 15.28125 34.132813 34.132812 34.132813v17.066406h17.066406v-17.066406c18.851563 0 34.132813-15.28125 34.132813-34.132813v-17.066406c0-14.136718-11.460938-25.601562-25.601563-25.601562h-34.132812c-4.710938 0-8.53125-3.820313-8.53125-8.53125v-17.066406c0-9.425782 7.640625-17.066407 17.066406-17.066407zm0 0" fill="url(#p)"/></svg>